# xmcd
#
# Track frame offsets: 
#        183
#        34908
#        57678
#        87270
#        115605
#        145548
#        180135
#        210555
#        236040
#
# Disc length: 3290 seconds
#
# Revision: 1
# Processed by: cddbd v1.5.2PL0 Copyright (c) Steve Scherf et al.
# Submitted via: ExactAudioCopyFreeDBPlugin 1.0
#
DISCID=720cd809
DTITLE=Acoustic Art - Interlude
DYEAR=1992
DGENRE=Jazz
TTITLE0=Interclude
TTITLE1=Pigeons
TTITLE2=7 nach 8
TTITLE3=Fabel
TTITLE4=Arco
TTITLE5=A World of Temptation
TTITLE6=Matter
TTITLE7=Wurzkeil
TTITLE8=Stück
EXTD=YEAR: 1992
EXTT0=
EXTT1=
EXTT2=
EXTT3=
EXTT4=
EXTT5=
EXTT6=
EXTT7=
EXTT8=
PLAYORDER=
